<svg xmlns="http://www.w3.org/2000/svg" xmlns:xlink="http://www.w3.org/1999/xlink" width="24" height="24"><defs><path id="a" d="M0 0h23.96v24H0z"/></defs><g fill="none" fill-rule="evenodd"><mask id="b" fill="#fff"><use xlink:href="#a"/></mask><path fill="#DD001B" d="M11.98 0C5.363 0 0 5.373 0 12s5.363 12 11.98 12c6.616 0 11.98-5.373 11.98-12S18.595 0 11.98 0" mask="url(#b)"/><path fill="#FFF" d="M13.397 13.227a1.43 1.43 0 0 1-.754.5 1.46 1.46 0 0 1-1.252-.214c-.43-.3-.715-.804-.763-1.35a2.3 2.3 0 0 1 .074-.81c.219-.784.856-1.463 1.663-1.774q.326-.127.66-.19c.083.31.176.633.267.953.125.433.247.862.345 1.25.115.453.166 1.104-.24 1.635m3.796-4.179c-.807-.755-1.857-1.198-2.965-1.295a87 87 0 0 0-.216-.82c-.052-.19-.076-.404-.02-.595a.795.795 0 0 1 1.264-.385c.095.072.17.165.257.246a.792.792 0 0 0 1.23-.968l-.011-.019a1.7 1.7 0 0 0-.349-.392 2.5 2.5 0 0 0-1.332-.584 2.4 2.4 0 0 0-1.023.105c-1.294.428-1.914 1.636-1.543 3.007l.133.506q-.416.088-.822.245c-1.264.487-2.267 1.57-2.618 2.826a3.8 3.8 0 0 0-.127 1.376 3.45 3.45 0 0 0 1.437 2.514 3.03 3.03 0 0 0 2.576.44 3 3 0 0 0 1.59-1.064c.617-.807.8-1.87.518-2.988-.103-.408-.233-.86-.358-1.298l-.135-.475c.536.139 1.031.4 1.434.777 1.397 1.307 1.666 3.559.626 5.238-.914 1.475-2.693 2.428-4.534 2.428-3.104 0-5.63-2.529-5.63-5.638a5.5 5.5 0 0 1 .421-2.11 5.5 5.5 0 0 1 .635-1.138 5.7 5.7 0 0 1 1.387-1.35 5.5 5.5 0 0 1 1.054-.563.793.793 0 0 0-.586-1.473 8 8 0 0 0-.642.296 7.2 7.2 0 0 0-1.97 1.516 7.15 7.15 0 0 0-1.617 2.908 7 7 0 0 0-.264 1.914c0 3.983 3.235 7.223 7.212 7.223 2.375 0 4.683-1.247 5.879-3.177 1.454-2.347 1.08-5.39-.891-7.233"/></g><script/></svg>