<svg xmlns="http://www.w3.org/2000/svg" xmlns:xlink="http://www.w3.org/1999/xlink" width="194px" height="24px" viewBox="0 0 194 24" version="1.1"><script xmlns=""/>
    <title>logo_英文</title>
    <defs>
        <polygon id="path-1" points="0 0 7.94031228 0 7.94031228 10.5528151 0 10.5528151"/>
        <polygon id="path-3" points="0 0 23.9594227 0 23.9594227 24 0 24"/>
    </defs>
    <g id="定稿" stroke="none" stroke-width="1" fill="none" fill-rule="evenodd">
        <g id="画板" transform="translate(-75.000000, -168.000000)">
            <g id="编组-3" transform="translate(75.000000, 168.000000)">
                <path d="M178.49797,11.9037084 C178.167329,11.7703368 175.968532,11.0880501 175.46504,10.6817638 C175.221338,10.4849635 175.031031,10.2322775 174.976267,9.90450558 C174.920475,9.56747652 175.000568,9.22667604 175.196694,8.96953281 C175.77001,8.21833174 176.937522,8.34210335 177.582375,8.60781801 C177.832923,8.71136102 178.066014,8.83890406 178.295683,8.99730428 C178.468534,9.11661874 178.636592,9.2431332 178.745437,9.32679047 C178.812524,9.37856197 178.908704,9.36279052 178.95628,9.29319042 L179.690125,8.21627459 C179.733937,8.15181736 179.720588,8.06438866 179.658978,8.01707431 C179.527885,7.91661702 179.316357,7.75547394 179.230445,7.69615957 C178.884402,7.45615922 178.517137,7.2597018 178.140973,7.11227302 C177.608046,6.90381558 177.067588,6.79821543 176.533976,6.79821543 L176.473735,6.79855828 C175.895284,6.79855828 175.357223,6.92884418 174.87461,7.18633027 C174.383783,7.44758778 173.995639,7.80621687 173.719763,8.25124607 C173.436356,8.70793244 173.292599,9.21399031 173.292599,9.75536251 C173.292599,10.691021 173.73585,11.4936507 174.509057,12.0192515 C175.242217,12.5181093 177.321901,13.2141103 177.679582,13.3663391 C177.752829,13.3971963 177.823339,13.4397106 177.901378,13.4866821 C178.259059,13.701311 178.374407,14.0331972 178.370642,14.3465691 C178.364823,14.775484 178.266247,15.0682844 177.938687,15.3271419 C177.62071,15.5784565 177.18807,15.6727424 176.609962,15.6727424 C176.137275,15.6727424 175.664589,15.5887423 175.212097,15.3675991 C174.890697,15.2105703 174.648022,15.0528558 174.449158,14.871827 C174.367011,14.7967411 174.126389,14.5869123 174.042531,14.5111407 C173.980236,14.4542264 173.883714,14.4624549 173.829976,14.5279408 L173.005085,15.5414279 C172.957508,15.5997137 172.960589,15.6837138 173.0133,15.7375425 C173.0975,15.8242855 173.351813,16.0601715 173.447309,16.1448573 C173.816627,16.4736578 174.223596,16.7380011 174.657605,16.9310299 C175.308619,17.2193732 175.904184,17.3479448 176.588056,17.3479448 C177.615234,17.3479448 178.330938,17.0452015 178.583539,16.9070299 C179.186292,16.5772008 179.592918,16.0673715 179.862976,15.3861134 C179.982431,15.0854273 180.04541,14.6746838 180.04541,14.197426 C180.04541,13.0457672 179.462168,12.292509 178.49797,11.9037084" id="Fill-1" fill="#000"/>
                <path d="M143.451555,12.0049886 C143.451555,12.6893324 143.494317,15.6070509 139.914769,15.6070509 L139.190165,15.6070509 L139.190165,8.40258343 L139.914769,8.40258343 C143.494317,8.40258343 143.451555,11.3203019 143.451555,12.0049886 M139.892863,6.87515268 L138.54634,6.87515268 C138.048324,6.87515268 137.644436,7.27938183 137.644436,7.77823968 L137.644436,16.2313946 C137.644436,16.7302525 138.048324,17.1348245 138.54634,17.1348245 L139.891494,17.1348245 C139.981513,17.1379102 140.070848,17.1396245 140.159156,17.1396245 C141.574477,17.1396245 142.724875,16.7209953 143.580571,15.8940227 C144.56291,14.9449928 145.125958,13.6788195 145.125958,12.0049886 C145.125958,10.3311576 144.56291,9.06498438 143.580571,8.11595445 C142.671479,7.23721034 141.432774,6.82098117 139.892863,6.87515268" id="Fill-3" fill="#000"/>
                <g id="编组" transform="translate(186.059688, 6.795164)">
                    <mask id="mask-2" fill="white">
                        <use xlink:href="#path-1"/>
                    </mask>
                    <g id="Clip-6"/>
                    <path d="M7.83749184,8.1507545 L6.63301399,7.64023949 C6.55908185,7.60869658 6.47556591,7.63955377 6.43346566,7.70846815 C5.97378571,8.46926924 5.16053212,8.87761268 4.23911854,8.87761268 C2.93024577,8.87761268 1.54572946,8.07326868 1.54572946,5.27657897 C1.54572946,2.5426322 2.84946806,1.67554525 4.23911854,1.67554525 C5.15950528,1.67554525 5.97207431,2.08251726 6.43243882,2.84228977 C6.47488135,2.91188987 6.55908185,2.94274706 6.63404083,2.91120416 L7.83920323,2.40274629 C7.92785335,2.36537481 7.96721537,2.25806037 7.9206655,2.17406025 C7.6872316,1.75268822 7.38671113,1.37451625 7.02868787,1.05737294 C6.28799732,0.401829145 5.31626881,0 4.24014538,0 C3.16778701,0 2.19434711,0.404229149 1.45160289,1.06320152 C0.62534272,1.79623114 0,2.88651841 0,5.27657897 C0,7.72938247 0.62534272,8.75658394 1.45160289,9.48995641 C2.19434711,10.1485859 3.16778701,10.5528151 4.24014538,10.5528151 C5.31626881,10.5528151 6.28799732,10.1506431 7.02868787,9.49509928 C7.38602657,9.17898454 7.68586249,8.80184115 7.91895411,8.38046911 C7.96584626,8.29612614 7.92648424,8.18846884 7.83749184,8.1507545" id="Fill-5" fill="#000" mask="url(#mask-2)"/>
                </g>
                <path d="M107.906052,14.9459185 L106.701917,14.4354035 C106.627985,14.4038606 106.544126,14.4347178 106.502368,14.5036321 C106.042346,15.2644332 105.229093,15.6727767 104.307679,15.6727767 C102.999149,15.6727767 101.61429,14.8684327 101.61429,12.071743 C101.61429,9.3377962 102.918371,8.47070924 104.307679,8.47070924 C105.228066,8.47070924 106.040977,8.87768125 106.501342,9.63745377 C106.543442,9.70705387 106.627985,9.73791105 106.702601,9.70636815 L107.907764,9.19791028 C107.996414,9.1605388 108.036118,9.05322436 107.989226,8.96922424 C107.756134,8.54785221 107.455614,8.16968024 107.097248,7.85253693 C106.3569,7.19699314 105.384829,6.79516399 104.309048,6.79516399 C103.23669,6.79516399 102.26325,7.19939314 101.520506,7.85836551 C100.694245,8.59139513 100.068903,9.6816824 100.068903,12.071743 C100.068903,14.5245465 100.694245,15.5517479 101.520506,16.2851204 C102.26325,16.9437499 103.23669,17.3479791 104.309048,17.3479791 C105.384829,17.3479791 106.3569,16.9458071 107.097248,16.2902633 C107.454587,15.9741485 107.754765,15.5970051 107.987857,15.1756331 C108.034749,15.0912901 107.995045,14.9836328 107.906052,14.9459185" id="Fill-7" fill="#000"/>
                <path d="M116.110364,15.5977937 L111.438605,15.5977937 C111.418411,15.5977937 111.401982,15.5813365 111.401982,15.5611079 L111.401982,7.04555292 C111.401982,6.97252425 111.336607,6.91320988 111.255829,6.91320988 L110.002405,6.91320988 C109.921627,6.91320988 109.856595,6.97252425 109.856595,7.04555292 L109.856595,16.2913947 C109.856595,16.7597382 110.235154,17.1399673 110.702707,17.1406531 L116.110364,17.1461388 C116.190799,17.1461388 116.256517,17.080653 116.256517,16.9997386 L116.256517,15.7441939 C116.256517,15.6632795 116.190799,15.5977937 116.110364,15.5977937" id="Fill-9" fill="#000"/>
                <path d="M171.320801,7.04562149 C171.320801,6.97259282 171.255768,6.91327845 171.174648,6.91327845 L169.921225,6.91327845 C169.840447,6.91327845 169.775072,6.97259282 169.775072,7.04562149 L169.775072,13.0864301 C169.775072,14.4969464 168.832095,15.6071194 167.428069,15.6503195 C166.036364,15.6931767 164.910953,14.5092893 164.910953,13.1145444 L164.910953,7.04562149 C164.910953,6.97259282 164.845578,6.91327845 164.765142,6.91327845 L163.511376,6.91327845 C163.430599,6.91327845 163.365566,6.97259282 163.365566,7.04562149 L163.365566,13.0864301 C163.365566,15.4206049 164.983516,17.3289505 167.343184,17.3289505 C169.687791,17.3289505 171.320801,15.4206049 171.320801,13.0864301 L171.320801,7.04562149 Z" id="Fill-11" fill="#000"/>
                <path d="M70.7508029,12.9187385 L72.0648099,9.17781883 C72.0699441,9.16410452 72.0897962,9.16410452 72.0945881,9.17781883 L73.4085951,12.9187385 C73.4137292,12.9338242 73.4024341,12.9492528 73.386347,12.9492528 L70.7727088,12.9492528 C70.756964,12.9492528 70.7456688,12.9338242 70.7508029,12.9187385 M76.4935507,16.9490299 C76.4935507,16.9490299 73.2045971,7.59861657 73.1974093,7.57838797 C72.8277485,6.51655788 71.3278844,6.51827217 70.9568546,7.57941654 C70.9551432,7.58387369 67.6723506,16.9462871 67.6723506,16.9462871 C67.6333309,17.0577158 67.71582,17.1746302 67.833906,17.1746302 L69.0400953,17.1746302 C69.1728993,17.1746302 69.2913277,17.0906301 69.3354816,16.9651442 L70.2034997,14.4931407 C70.2117144,14.487655 70.2175331,14.4831978 70.2257478,14.4777121 L73.9394689,14.4777121 C73.9476836,14.4831978 73.9535024,14.487655 73.9613748,14.4931407 L74.8290506,16.9627442 C74.8735468,17.0899444 74.9933443,17.1746302 75.1278597,17.1746302 L76.3340489,17.1746302 C76.4507659,17.1746302 76.5322282,17.0590872 76.4935507,16.9490299" id="Fill-13" fill="#000"/>
                <path d="M92.9347247,8.46158923 C93.0155024,8.46158923 93.0808776,8.39610342 93.0808776,8.31518902 L93.0808776,7.05964437 C93.0808776,6.97872997 93.0155024,6.91324416 92.9347247,6.91324416 L87.5287789,6.91324416 C87.060542,6.91324416 86.6809552,7.29347328 86.6809552,7.76215966 L86.6809552,16.3342862 C86.6809552,16.8026297 87.0598574,17.1828588 87.5274098,17.1832017 L92.9347247,17.1890303 C93.0155024,17.1890303 93.0808776,17.1235445 93.0808776,17.0426301 L93.0808776,15.7870854 C93.0808776,15.706171 93.0155024,15.6406852 92.9347247,15.6406852 L88.2266847,15.6406852 L88.2266847,12.8254812 L92.641392,12.8254812 C92.7221698,12.8254812 92.7875449,12.7596525 92.7875449,12.679081 L92.7875449,11.4231935 C92.7875449,11.3422791 92.7221698,11.2767933 92.641392,11.2767933 L88.2266847,11.2767933 L88.2266847,8.46158923 L92.9347247,8.46158923 Z" id="Fill-15" fill="#000"/>
                <path d="M65.8039553,8.46158923 C65.884733,8.46158923 65.9501082,8.39610342 65.9501082,8.31518902 L65.9501082,7.05964437 C65.9501082,6.97872997 65.884733,6.91324416 65.8039553,6.91324416 L60.3980095,6.91324416 C59.9294303,6.91324416 59.5501858,7.29347328 59.5501858,7.76215966 L59.5501858,16.3342862 C59.5501858,16.8026297 59.9287457,17.1828588 60.3966404,17.1832017 L65.8039553,17.1890303 C65.884733,17.1890303 65.9501082,17.1235445 65.9501082,17.0426301 L65.9501082,15.7870854 C65.9501082,15.706171 65.884733,15.6406852 65.8039553,15.6406852 L61.0959152,15.6406852 L61.0959152,12.8254812 L65.5106226,12.8254812 C65.5914003,12.8254812 65.6567755,12.7596525 65.6567755,12.679081 L65.6567755,11.4231935 C65.6567755,11.3422791 65.5914003,11.2767933 65.5106226,11.2767933 L61.0959152,11.2767933 L61.0959152,8.46158923 L65.8039553,8.46158923 Z" id="Fill-17" fill="#000"/>
                <path d="M47.9376365,8.46158923 C48.0184142,8.46158923 48.0837894,8.39610342 48.0837894,8.31518902 L48.0837894,7.05964437 C48.0837894,6.97872997 48.0184142,6.91324416 47.9376365,6.91324416 L42.5316907,6.91324416 C42.0631116,6.91324416 41.683867,7.29347328 41.683867,7.76215966 L41.683867,16.3342862 C41.683867,16.8026297 42.062427,17.1828588 42.5303216,17.1832017 L47.9376365,17.1890303 C48.0184142,17.1890303 48.0837894,17.1235445 48.0837894,17.0426301 L48.0837894,15.7870854 C48.0837894,15.706171 48.0184142,15.6406852 47.9376365,15.6406852 L43.2295965,15.6406852 L43.2295965,12.8254812 L47.6443039,12.8254812 C47.7250816,12.8254812 47.7904568,12.7596525 47.7904568,12.679081 L47.7904568,11.4231935 C47.7904568,11.3422791 47.7247393,11.2767933 47.6443039,11.2767933 L43.2295965,11.2767933 L43.2295965,8.46158923 L47.9376365,8.46158923 Z" id="Fill-19" fill="#000"/>
                <path d="M135.318072,7.04562149 C135.318072,6.97259282 135.252697,6.91327845 135.171919,6.91327845 L133.918153,6.91327845 C133.837718,6.91327845 133.772,6.97259282 133.772,7.04562149 L133.772,13.0864301 C133.772,14.4969464 132.829365,15.6071194 131.425339,15.6503195 C130.033635,15.6931767 128.908224,14.5092893 128.908224,13.1145444 L128.908224,7.04562149 C128.908224,6.97259282 128.842848,6.91327845 128.762413,6.91327845 L127.508647,6.91327845 C127.427869,6.91327845 127.362494,6.97259282 127.362494,7.04562149 L127.362494,13.0864301 C127.362494,15.4206049 128.980444,17.3289505 131.340112,17.3289505 C133.685061,17.3289505 135.318072,15.4206049 135.318072,13.0864301 L135.318072,7.04562149 Z" id="Fill-21" fill="#000"/>
                <path d="M183.989143,17.0370415 L183.989143,7.01394145 C183.989143,6.94056992 183.923768,6.88125554 183.84299,6.88125554 L182.589224,6.88125554 C182.508788,6.88125554 182.443071,6.94056992 182.443071,7.01394145 L182.443071,17.0370415 C182.443071,17.117613 182.508788,17.1834417 182.589224,17.1834417 L183.84299,17.1834417 C183.923768,17.1834417 183.989143,17.117613 183.989143,17.0370415" id="Fill-23" fill="#000"/>
                <path d="M156.68809,11.5843023 C156.702123,11.6083023 156.737036,11.6083023 156.751411,11.5843023 L159.243541,7.32258189 C159.40715,7.0424672 159.706986,6.87035267 160.031466,6.87035267 L160.981973,6.87069553 C161.062408,6.87069553 161.127783,6.93618134 161.127783,7.01709574 L161.127783,17.0371101 C161.127783,17.1176816 161.062408,17.1835103 160.981973,17.1835103 L159.728207,17.1835103 C159.647429,17.1835103 159.582054,17.1176816 159.582054,17.0371101 L159.582054,9.70029957 C159.582054,9.66292809 159.532766,9.64955664 159.513941,9.68178526 L157.606081,12.9787043 C157.415089,13.2787047 157.080683,13.4611049 156.721975,13.4611049 C156.360187,13.4611049 156.024412,13.2766475 155.834105,12.9732185 L153.925218,9.68178526 C153.906393,9.64955664 153.857105,9.66292809 153.857105,9.70029957 L153.857105,17.0371101 C153.857105,17.1176816 153.791387,17.1835103 153.710952,17.1835103 L152.457528,17.1835103 C152.376408,17.1835103 152.311375,17.1176816 152.311375,17.0371101 L152.311375,7.01469574 C152.311375,6.93515276 152.375381,6.87069553 152.455132,6.87069553 L153.383049,6.87035267 C153.715744,6.87035267 154.023794,7.04692435 154.192538,7.33423905 L156.68809,11.5843023 Z" id="Fill-25" fill="#000"/>
                <path d="M82.9589852,11.8648969 C82.6283442,11.7315253 80.4295475,11.0488958 79.9260559,10.6429523 C79.6823536,10.4461521 79.4920468,10.1931231 79.4372822,9.86569409 C79.3811486,9.52866504 79.461584,9.18786455 79.6577096,8.93072133 C80.231026,8.17952026 81.3985377,8.302949 82.0433903,8.56900653 C82.2935959,8.67254953 82.5270298,8.80009257 82.7566986,8.95814994 C82.9295492,9.07780725 83.0976079,9.20432172 83.2064525,9.28797898 C83.2731968,9.33940763 83.3697193,9.32397903 83.417296,9.25403608 L84.151141,8.17746311 C84.1949526,8.11300588 84.1816038,8.02557718 84.1196514,7.97791997 C83.988901,7.87780554 83.7773729,7.71666245 83.691461,7.65734808 C83.3450752,7.41734774 82.9778105,7.22089032 82.6019887,7.07346153 C82.0690612,6.86466124 81.5286035,6.75906108 80.9949914,6.75906108 L80.9347504,6.7597468 C80.3562999,6.7597468 79.8182381,6.8900327 79.3356255,7.14717592 C78.8447982,7.4087763 78.4563122,7.76706252 78.1807781,8.21243459 C77.8973715,8.66912096 77.7536146,9.17483596 77.7536146,9.71655102 C77.7536146,10.6518666 78.1965229,11.4544964 78.9697299,11.9800971 C79.7032326,12.478955 81.7829164,13.1752988 82.1405974,13.3275276 C82.213845,13.3583848 82.2843543,13.4005563 82.3623938,13.4475278 C82.7200748,13.6624995 82.8354226,13.9943857 82.8313153,14.3077576 C82.8258388,14.7363296 82.7272627,15.0294729 82.3997022,15.2883304 C82.0817255,15.5396451 81.6490856,15.6339309 81.0709773,15.6339309 C80.5979484,15.6339309 80.1256042,15.5499308 79.6731121,15.3284448 C79.3513703,15.171416 79.1090372,15.0140443 78.9098312,14.8326726 C78.8276843,14.7579297 78.5874049,14.5477579 78.5035466,14.4719864 C78.4409097,14.4154149 78.3443872,14.4233006 78.2909917,14.4891293 L77.4661007,15.5026164 C77.418524,15.5609022 77.4216045,15.6445595 77.4739731,15.6983881 C77.5585159,15.785474 77.8128287,16.0210172 77.9083244,16.1060459 C78.2773006,16.4348463 78.6846119,16.6991896 79.118621,16.8922184 C79.7692923,17.1805617 80.3648568,17.3087904 81.0490714,17.3087904 C82.0759068,17.3087904 82.7919533,17.00639 83.0445548,16.8682184 C83.6473071,16.5380465 84.0539339,16.02856 84.3239916,15.3473019 C84.4431045,15.0466158 84.5060837,14.6358723 84.5060837,14.1586145 C84.5060837,13.0066129 83.9231835,12.2536975 82.9589852,11.8648969" id="Fill-27" fill="#000"/>
                <path d="M57.7086251,6.91320988 L50.1223656,6.91320988 C50.0494603,6.91320988 49.9902461,6.97869568 49.9902461,7.05961009 L49.9902461,8.31549759 C49.9902461,8.39606914 50.0494603,8.46155495 50.1223656,8.46155495 L53.1494762,8.46155495 L53.1494762,17.0281958 C53.1494762,17.1091102 53.2148514,17.174596 53.2952868,17.174596 L54.5490527,17.174596 C54.6298304,17.174596 54.6952056,17.1091102 54.6952056,17.0281958 L54.6952056,8.46155495 L57.7086251,8.46155495 C57.7890605,8.46155495 57.854778,8.39606914 57.854778,8.31515474 L57.854778,7.05961009 C57.854778,6.97869568 57.7890605,6.91320988 57.7086251,6.91320988" id="Fill-29" fill="#000"/>
                <path d="M38.8629108,16.1904574 L38.8629108,7.06633009 C38.8629108,6.98541569 38.7975356,6.91992989 38.7167579,6.91992989 L37.4629919,6.91992989 C37.3822142,6.91992989 37.316839,6.98541569 37.316839,7.06633009 L37.316839,14.1075973 L32.9356749,7.33855906 C32.7665894,7.07730154 32.4773641,6.91992989 32.1669176,6.91992989 L31.3019799,6.91992989 C31.1900549,6.91992989 31.0993511,7.01078716 31.0993511,7.1229016 L31.0993511,7.91147416 L31.0993511,17.0359443 C31.0993511,17.1168587 31.1647263,17.1823445 31.245504,17.1823445 L32.4992699,17.1823445 C32.5800476,17.1823445 32.6450805,17.1168587 32.6450805,17.0359443 L32.6450805,9.99467714 L37.0276138,16.7650868 C37.1960147,17.0253158 37.4842132,17.1823445 37.7936329,17.1823445 L38.7140197,17.1823445 C38.7961665,17.1823445 38.8629108,17.1154873 38.8629108,17.0332015 L38.8629108,16.1904574 Z" id="Fill-31" fill="#000"/>
                <path d="M123.831036,13.4351849 C123.6664,14.7445582 122.636827,15.7481025 121.317001,15.7546168 C119.99786,15.7481025 118.968286,14.7445582 118.80365,13.4351849 C118.793724,13.3590705 118.721846,12.9496985 118.721846,12.0634115 C118.721846,11.274839 118.793724,10.776324 118.80365,10.7002096 C118.968286,9.39083627 119.99786,8.38729198 121.317001,8.38077769 C122.636827,8.38729198 123.6664,9.39083627 123.831036,10.7002096 C123.840278,10.776324 123.909418,11.2902676 123.909418,12.0634115 C123.909418,12.9562128 123.840278,13.3590705 123.831036,13.4351849 M125.426396,10.672781 C125.322343,9.54100792 124.843154,8.53334933 124.044276,7.82603404 C123.319672,7.18454741 122.369165,6.79060399 121.317001,6.78717541 C120.265179,6.79060399 119.315014,7.18454741 118.590069,7.82603404 C117.791191,8.53334933 117.312001,9.54100792 117.207948,10.672781 C117.200076,10.7595239 117.131278,11.1479816 117.131278,12.0634115 C117.131278,13.0720987 117.200076,13.3758705 117.207948,13.4622707 C117.311659,14.5943866 117.791191,15.6020451 118.590069,16.3093604 C119.315014,16.9508471 120.265179,17.3447905 121.317001,17.3482191 C122.369165,17.3447905 123.319672,16.9508471 124.044276,16.3093604 C124.843154,15.6020451 125.322343,14.5943866 125.426396,13.4622707 C125.434611,13.3758705 125.500328,13.1303845 125.500328,12.0634115 C125.500328,11.0674101 125.434611,10.7595239 125.426396,10.672781" id="Fill-33" fill="#000"/>
                <g id="编组" transform="translate(0.000000, 0.000000)">
                    <mask id="mask-4" fill="white">
                        <use xlink:href="#path-3"/>
                    </mask>
                    <g id="Clip-36"/>
                    <path d="M11.9796771,-3.42857633e-05 C5.36343478,-3.42857633e-05 -6.84556891e-05,5.37254482 -6.84556891e-05,11.9999829 C-6.84556891e-05,18.6274209 5.36343478,24 11.9796771,24 C18.5959195,24 23.9594227,18.6274209 23.9594227,11.9999829 C23.9594227,5.37254482 18.5959195,-3.42857633e-05 11.9796771,-3.42857633e-05" id="Fill-35" fill="#DD001B" mask="url(#mask-4)"/>
                </g>
                <path d="M13.3967441,13.227276 C13.2153365,13.4648764 12.9473325,13.6424766 12.6427047,13.7268196 C12.0844486,13.8804198 11.65352,13.6952767 11.3909924,13.5125336 C10.9604061,13.212876 10.6756305,12.7088753 10.6277115,12.1637317 C10.603752,11.8877313 10.6290806,11.6148166 10.7023282,11.3525305 C10.9210441,10.5694437 11.5580243,9.88989984 12.3651169,9.57858511 C12.5817791,9.49492785 12.8025487,9.43149919 13.0243452,9.38829913 C13.1082034,9.69892814 13.2006186,10.0219 13.2923492,10.3424719 C13.4165963,10.7751583 13.5394742,11.2040731 13.6373659,11.5915023 C13.7520291,12.0447601 13.8030286,12.6958467 13.3967441,13.227276 M17.1929544,9.04818435 C16.3858618,8.29286899 15.3357515,7.85023979 14.2284807,7.75252536 C14.1696088,7.52932504 14.0806165,7.1881817 14.0118185,6.9324099 C13.9601344,6.74315249 13.9358327,6.52852361 13.9912818,6.33755191 C14.0066843,6.28406612 14.0309861,6.23538034 14.0573415,6.18635169 C14.1720048,5.97309425 14.3866134,5.82600832 14.6241546,5.78623684 C14.7323146,5.76806538 14.8432128,5.77389396 14.9489769,5.80166543 C15.0595328,5.83115119 15.16427,5.88326555 15.2553161,5.95217993 C15.3508118,6.02486575 15.4257707,6.11812303 15.5130517,6.19938028 C15.6544127,6.33172333 15.844035,6.41263773 16.0524826,6.41263773 C16.4899144,6.41263773 16.8441726,6.05778008 16.8441726,5.61995089 C16.8441726,5.49000784 16.812683,5.36726481 16.7572339,5.25926466 C16.752442,5.24966464 16.7476501,5.24040749 16.7421736,5.23115033 C16.7387509,5.22497889 16.7349858,5.2184646 16.731563,5.21229316 C16.6429129,5.06315009 16.5149008,4.93320705 16.3831236,4.81972117 C16.1291529,4.60166372 15.8296593,4.43709205 15.5116826,4.33526334 C15.3617647,4.28726327 15.2077394,4.25366322 15.0513181,4.23583462 C14.7080128,4.19640599 14.3568352,4.23240605 14.0282479,4.34074906 C12.7340931,4.76897824 12.1135422,5.97720854 12.4845721,7.34829621 C12.5211959,7.48578212 12.5845174,7.72749675 12.6180607,7.85366836 C12.3411574,7.91298273 12.0663078,7.99492571 11.7962501,8.09915443 C10.5322158,8.58635512 9.52865541,9.66978524 9.17816228,10.924987 C9.05323065,11.3713877 9.01044584,11.8345883 9.05117698,12.3012176 C9.13914254,13.3102476 9.67617742,14.2493346 10.4877196,14.8147069 C11.2523697,15.3468219 12.1669377,15.5028221 13.0640495,15.2549361 C13.6993183,15.079393 14.2637354,14.7015639 14.6535906,14.1910488 C15.2707186,13.3836191 15.4548644,12.321789 15.1721424,11.2027017 C15.0691166,10.7953869 14.9393931,10.3428148 14.8141192,9.90532844 C14.7685961,9.74692821 14.7230731,9.58818513 14.6789192,9.43047061 C15.2152695,9.5689851 15.7102041,9.83024261 16.1127236,10.2070432 C17.5099042,11.5143593 17.7792773,13.7659054 16.7390931,15.4452221 C15.8252097,16.9201956 14.0457041,17.8733398 12.2049306,17.8733398 C9.10114963,17.8733398 6.57581926,15.3440791 6.57581926,12.2350461 C6.57581926,11.9583599 6.5973828,11.6796167 6.63948305,11.4046449 C6.67302634,11.1835017 6.72094532,10.9630442 6.78084405,10.7487582 C6.84005822,10.5372151 6.91262125,10.3270433 6.99647947,10.1244145 C7.07965313,9.92315703 7.1754911,9.72498532 7.2819397,9.53504219 C7.3866769,9.34715621 7.50476296,9.1626988 7.63140599,8.98681284 C7.75702218,8.81264116 7.89496039,8.64395521 8.04077101,8.48418355 C8.18623935,8.32578332 8.34231832,8.17355453 8.50490058,8.03264005 C8.66748284,7.89172556 8.84033346,7.75835394 9.01831825,7.63698234 C9.19732988,7.51458216 9.38489846,7.40246772 9.57657439,7.30235329 C9.68165388,7.24749607 9.78810247,7.19572457 9.89626246,7.14806735 C9.9544498,7.12235303 10.0129794,7.09766728 10.0721936,7.07366725 C10.4781358,6.91149559 10.6759728,6.45035207 10.5144173,6.04406578 C10.3525196,5.63675091 9.89215512,5.43823634 9.4858706,5.60109372 C9.40920023,5.63160805 9.33287214,5.66417952 9.25517493,5.69812243 C9.11620988,5.76017966 8.97861395,5.82635118 8.84409852,5.896637 C8.5983426,6.02520861 8.35737857,6.16989453 8.12736746,6.32658047 C7.89906773,6.48223783 7.6772713,6.65332379 7.46916601,6.83400976 C7.26071843,7.01435288 7.06014326,7.20943887 6.87428607,7.4130963 C6.68705976,7.6170966 6.51078636,7.83378262 6.34923093,8.0573258 C6.18630639,8.28292612 6.0353616,8.51949788 5.90084617,8.76086966 C5.76461935,9.00464144 5.64105683,9.2590418 5.53426595,9.51755645 C5.42610597,9.77847111 5.33266395,10.0489858 5.25702041,10.3208719 C5.17966548,10.5958437 5.11839764,10.8797298 5.07492828,11.1639588 C5.02084829,11.5181307 4.99312373,11.8784741 4.99312373,12.2350461 C4.99312373,16.2180232 8.2283396,19.4583707 12.2049306,19.4583707 C14.580343,19.4583707 16.8883265,18.2113974 18.0839052,16.281109 C19.5382463,13.9339056 19.1634514,10.8917298 17.1929544,9.04818435" id="Fill-37" fill="#FFFFFF"/>
            </g>
        </g>
    </g>
<script xmlns=""/></svg>